<svg width="420" height="128" viewBox="0 0 420 128" fill="none" xmlns="http://www.w3.org/2000/svg">
<path d="M134.52 37.448C140.549 37.448 145.513 38.9213 149.412 41.868C153.311 44.8147 155.736 48.804 156.688 53.836H144.38C143.564 52.1133 142.317 50.7533 140.64 49.756C138.963 48.7133 136.945 48.192 134.588 48.192C130.916 48.192 127.969 49.4387 125.748 51.932C123.527 54.38 122.416 57.712 122.416 61.928C122.416 66.5067 123.572 70.02 125.884 72.468C128.241 74.916 131.573 76.14 135.88 76.14C138.645 76.14 141.071 75.392 143.156 73.896C145.241 72.3547 146.715 70.1787 147.576 67.368H132.888V59.004H157.3V70.496C156.393 73.3067 154.943 75.9133 152.948 78.316C150.953 80.7187 148.392 82.668 145.264 84.164C142.181 85.66 138.645 86.408 134.656 86.408C129.805 86.408 125.567 85.388 121.94 83.348C118.313 81.2627 115.503 78.3613 113.508 74.644C111.559 70.9267 110.584 66.688 110.584 61.928C110.584 57.168 111.559 52.9293 113.508 49.212C115.503 45.4947 118.291 42.616 121.872 40.576C125.499 38.4907 129.715 37.448 134.52 37.448ZM175.437 35.68V86H163.809V35.68H175.437ZM197.881 47.58C200.782 47.58 203.276 48.2373 205.361 49.552C207.446 50.8667 208.988 52.6573 209.985 54.924V48.056H221.545V86H209.985V79.132C208.988 81.3987 207.446 83.1893 205.361 84.504C203.276 85.8187 200.782 86.476 197.881 86.476C194.753 86.476 191.942 85.7053 189.449 84.164C187.001 82.5773 185.052 80.3107 183.601 77.364C182.196 74.4173 181.493 70.972 181.493 67.028C181.493 63.0387 182.196 59.5933 183.601 56.692C185.052 53.7453 187.001 51.5013 189.449 49.96C191.942 48.3733 194.753 47.58 197.881 47.58ZM201.621 57.78C199.128 57.78 197.11 58.596 195.569 60.228C194.073 61.86 193.325 64.1267 193.325 67.028C193.325 69.9293 194.073 72.196 195.569 73.828C197.11 75.46 199.128 76.276 201.621 76.276C204.069 76.276 206.064 75.4373 207.605 73.76C209.192 72.0827 209.985 69.8387 209.985 67.028C209.985 64.172 209.192 61.928 207.605 60.296C206.064 58.6187 204.069 57.78 201.621 57.78ZM253.623 47.648C257.975 47.648 261.42 49.0987 263.959 52C266.543 54.9013 267.835 58.8907 267.835 63.968V86H256.207V65.328C256.207 62.7893 255.527 60.8173 254.167 59.412C252.852 57.9613 251.084 57.236 248.863 57.236C246.506 57.236 244.624 57.984 243.219 59.48C241.859 60.976 241.179 63.1067 241.179 65.872V86H229.551V48.056H241.179V54.992C242.267 52.7253 243.876 50.9347 246.007 49.62C248.183 48.3053 250.722 47.648 253.623 47.648ZM292.64 47.58C297.536 47.58 301.639 48.94 304.948 51.66C308.258 54.3347 310.343 58.0293 311.204 62.744H298.896C298.534 61.112 297.786 59.8427 296.652 58.936C295.519 58.0293 294.091 57.576 292.368 57.576C290.328 57.576 288.651 58.392 287.336 60.024C286.022 61.6107 285.364 63.9453 285.364 67.028C285.364 70.1107 286.022 72.468 287.336 74.1C288.651 75.6867 290.328 76.48 292.368 76.48C294.091 76.48 295.519 76.0267 296.652 75.12C297.786 74.2133 298.534 72.944 298.896 71.312H311.204C310.343 76.0267 308.258 79.744 304.948 82.464C301.639 85.1387 297.536 86.476 292.64 86.476C288.923 86.476 285.614 85.7053 282.712 84.164C279.856 82.5773 277.612 80.3107 275.98 77.364C274.348 74.4173 273.532 70.972 273.532 67.028C273.532 63.0387 274.326 59.5933 275.912 56.692C277.544 53.7453 279.811 51.5013 282.712 49.96C285.614 48.3733 288.923 47.58 292.64 47.58ZM353.314 66.008C353.314 66.96 353.2 68.0027 352.974 69.136H326.658C326.794 71.992 327.519 74.0547 328.834 75.324C330.148 76.548 331.826 77.16 333.866 77.16C335.588 77.16 337.016 76.7293 338.15 75.868C339.283 75.0067 340.031 73.896 340.394 72.536H352.702C352.203 75.2107 351.115 77.6133 349.438 79.744C347.76 81.8293 345.63 83.484 343.046 84.708C340.462 85.8867 337.583 86.476 334.41 86.476C330.692 86.476 327.383 85.7053 324.482 84.164C321.626 82.5773 319.382 80.3107 317.75 77.364C316.118 74.4173 315.302 70.972 315.302 67.028C315.302 63.0387 316.095 59.5933 317.682 56.692C319.314 53.7453 321.58 51.5013 324.482 49.96C327.383 48.3733 330.692 47.58 334.41 47.58C338.172 47.58 341.482 48.3507 344.338 49.892C347.194 51.4333 349.392 53.6093 350.934 56.42C352.52 59.1853 353.314 62.3813 353.314 66.008ZM341.55 64.24C341.595 61.7467 340.915 59.888 339.51 58.664C338.15 57.3947 336.45 56.76 334.41 56.76C332.279 56.76 330.511 57.3947 329.106 58.664C327.7 59.9333 326.907 61.792 326.726 64.24H341.55ZM368.147 48.056L377.259 71.312L385.759 48.056H398.611L374.947 104.088H362.163L371.071 84.572L355.159 48.056H368.147Z" fill="black"/>
<path d="M54.4319 49.6998L58.7194 32.5035C59.0552 31.1566 60.4194 30.337 61.7663 30.6728L69.0975 32.5007C70.4444 32.8365 71.264 34.2006 70.9282 35.5475L66.6407 52.7438L83.3982 47.745C84.7468 47.3428 86.1628 48.1259 86.5388 49.482L88.6042 56.9307C88.9721 58.2574 88.2041 59.6332 86.8816 60.0164L70.0988 64.8794L82.6341 77.0522C83.6219 78.0114 83.6541 79.5867 82.7064 80.5855L77.372 86.2072C76.4087 87.2224 74.8017 87.2552 73.7977 86.2802L61.3041 74.1479L57.0607 91.1673C56.7248 92.5142 55.3607 93.3339 54.0138 92.998L46.6826 91.1702C45.3357 90.8343 44.516 89.4702 44.8519 88.1233L49.0953 71.1039L32.3682 75.9507C31.024 76.3402 29.6206 75.5568 29.2466 74.2081L27.1729 66.7293C26.8062 65.4068 27.568 64.0347 28.8844 63.6467L45.5068 58.7479L33.1299 46.6188C32.1498 45.6583 32.1213 44.0891 33.0659 43.0936L38.3942 37.4782C39.3629 36.4574 40.9808 36.4307 41.9827 37.419L54.4319 49.6998Z" fill="#C6A9FF"/>
<path d="M83.3984 47.745L66.6409 52.7438L55.3469 55.8428C53.7442 56.2826 52.5025 57.5513 52.0973 59.1631L49.0954 71.1038L44.852 88.1232C44.5162 89.4701 45.3359 90.8343 46.6828 91.1701L54.014 92.998C55.3609 93.3338 56.725 92.5141 57.0608 91.1672L61.3042 74.1478L73.7979 86.2802C74.8019 87.2552 76.4089 87.2223 77.3722 86.2071L82.7066 80.5854C83.6543 79.5867 83.6221 78.0113 82.6343 77.0522L70.099 64.8794L86.8818 60.0164C88.2042 59.6332 88.9723 58.2574 88.6044 56.9306L86.539 49.482C86.163 48.1259 84.7469 47.3427 83.3984 47.745Z" fill="#6B1EFF"/>
</svg>
